<?xml version="1.0" standalone="no"?><!DOCTYPE svg PUBLIC "-//W3C//DTD SVG 1.1//EN" "http://www.w3.org/Graphics/SVG/1.1/DTD/svg11.dtd"><svg t="1756953788470" class="icon" viewBox="0 0 1293 1024" version="1.1" xmlns="http://www.w3.org/2000/svg" p-id="22037" xmlns:xlink="http://www.w3.org/1999/xlink" width="252.5390625" height="200"><path d="M1163.587368 797.749895V89.088c0-24.576-23.390316-89.034105-86.231579-89.034105H86.285474C15.252211 0.053895 0 64.512 0 89.088v708.608c0 37.079579 30.127158 91.836632 86.285474 91.836632l991.070315-1.347369c53.463579 0 86.231579-43.600842 86.231579-90.435368z m-1078.649263 4.149894V87.686737H1078.433684v714.159158H84.938105z" fill="#03A9F4" p-id="22038"></path><path d="M648.407579 496.262737l-84.938105-96.471579-215.686737 266.671158-88.980211-84.021895L129.401263 754.526316h902.305684v-172.085895l-212.129684-315.338105-171.169684 229.160421zM320.889263 355.866947a110.484211 110.484211 0 0 0 110.106948-110.915368c0-61.978947-48.720842-112.262737-108.813474-112.262737S213.423158 182.972632 213.423158 244.951579c0 62.032842 47.373474 110.915368 107.466105 110.915368z" fill="#03A9F4" p-id="22039"></path><path d="M1208.104421 133.605053l-0.269474 684.032s13.958737 116.412632-69.632 116.412631H129.401263c0 24.576 24.683789 89.034105 86.285474 89.034105h991.070316c60.200421 0 86.339368-50.553263 86.339368-91.836631V222.693053c-0.053895-42.684632-46.349474-89.088-84.992-89.088z" fill="#7f9ef3" p-id="22040"></path></svg>
