<?xml version="1.0" standalone="no"?><!DOCTYPE svg PUBLIC "-//W3C//DTD SVG 1.1//EN" "http://www.w3.org/Graphics/SVG/1.1/DTD/svg11.dtd"><svg t="1756953633590" class="icon" viewBox="0 0 1024 1024" version="1.1" xmlns="http://www.w3.org/2000/svg" p-id="6693" xmlns:xlink="http://www.w3.org/1999/xlink" width="200" height="200"><path d="M941.511111 839.111111c-28.444444 19.911111-105.244444 45.511111-429.511111 45.511111-347.022222 0-398.222222-31.288889-415.288889-39.822222C11.377778 790.755556 0 580.266667 0 517.688889c0-48.355556 8.533333-284.444444 96.711111-338.488889C113.777778 170.666667 164.977778 139.377778 512 139.377778c324.266667 0 401.066667 25.6 429.511111 48.355555 76.8 56.888889 82.488889 267.377778 82.488889 329.955556 0 76.8-8.533333 264.533333-82.488889 321.422222zM890.311111 244.622222c-22.755556-14.222222-73.955556-34.133333-384-34.133333-298.666667 0-361.244444 22.755556-372.622222 31.288889-28.444444 17.066667-62.577778 142.222222-65.422222 287.288889 2.844444 145.066667 34.133333 224.711111 65.422222 244.622222 11.377778 5.688889 73.955556 31.288889 372.622222 31.288889 310.044444 0 372.622222-25.6 384-34.133334 25.6-19.911111 54.044444-93.866667 56.888889-241.777777 0-147.911111-31.288889-270.222222-56.888889-284.444445zM401.066667 682.666667c-8.533333 5.688889-19.911111 5.688889-28.444445 0-8.533333-5.688889-14.222222-14.222222-14.222222-22.755556V366.933333c0-8.533333 5.688889-19.911111 14.222222-22.755555 8.533333-5.688889 19.911111-5.688889 28.444445 0l250.311111 147.911111c11.377778 5.688889 17.066667 22.755556 11.377778 34.133333-2.844444 5.688889-5.688889 8.533333-11.377778 11.377778L401.066667 682.666667z" fill="#1296db" p-id="6694"></path></svg>
